<svg width="174" height="48" viewBox="0 0 174 48" fill="none" xmlns="http://www.w3.org/2000/svg">
<g clip-path="url(#clip0_124_191)">
<path d="M61.2403 22.9631C62.2981 22.4914 63.204 21.7383 63.8577 20.7872C64.5115 19.8361 64.8877 18.724 64.9447 17.5738C64.9667 16.5574 64.712 15.5539 64.2074 14.6692C63.7029 13.7846 62.9671 13.0516 62.0779 12.5477C60.0252 11.1887 57.359 10.6146 53.3125 10.6146C50.8726 10.6026 48.4353 10.7749 46.0217 11.1301C45.8394 11.1631 45.6746 11.2585 45.556 11.3999C45.4374 11.5412 45.3726 11.7194 45.3728 11.9033V36.3075C45.3717 36.4992 45.4423 36.6844 45.5709 36.8273C45.6995 36.9701 45.877 37.0605 46.0689 37.0808C48.118 37.2988 50.1781 37.4005 52.2389 37.3854C57.4534 37.3854 60.9336 36.6004 63.2105 34.8899C64.0958 34.2501 64.816 33.4112 65.3122 32.4419C65.8084 31.4727 66.0665 30.4005 66.0655 29.3132C66.0655 26.0679 63.765 24.0059 61.2403 22.9631ZM53.631 21.2878H50.8586V14.7503C51.7484 14.6622 52.6425 14.6231 53.5366 14.6332C57.4416 14.6332 59.4353 15.7344 59.4353 17.9019C59.4353 20.0693 57.0876 21.2878 53.631 21.2878ZM50.8586 25.2712H53.3125C55.436 25.2712 60.3909 25.6578 60.3909 29.278C60.3909 32.8982 56.0023 33.3317 53.3833 33.3317C52.3097 33.3317 51.4957 33.3317 50.8822 33.2614L50.8586 25.2712Z" fill="white"/>
<path d="M88.7282 29.3717C88.2932 27.4194 87.1244 25.7056 85.4603 24.5799C86.782 24.079 87.9223 23.1963 88.734 22.0457C89.5457 20.895 89.9916 19.5292 90.0141 18.1245C90.0232 17.0883 89.7827 16.0649 89.3128 15.1397C88.8428 14.2144 88.1571 13.4141 87.3125 12.8055C85.2716 11.2941 82.4284 10.6263 78.0634 10.6263C75.5056 10.6053 72.95 10.7776 70.4186 11.1418C70.2364 11.1748 70.0716 11.2702 69.953 11.4116C69.8344 11.5529 69.7695 11.7311 69.7698 11.9151V36.4013C69.7728 36.6054 69.8558 36.8003 70.0012 36.9447C70.1466 37.0891 70.3428 37.1715 70.5484 37.1745H74.4651C74.6727 37.1745 74.872 37.0935 75.0199 36.9488C75.1678 36.8041 75.2525 36.6074 75.2556 36.4013V26.4076H78.1341C81.3194 26.5131 82.6761 27.5792 83.4784 30.6605C84.5047 34.3744 85.1064 36.1084 85.6255 36.8348C85.6959 36.9376 85.7911 37.0215 85.9023 37.0788C86.0135 37.136 86.1373 37.1649 86.2625 37.1628H90.3091C90.4503 37.1649 90.5893 37.1275 90.7103 37.0551C90.8313 36.9826 90.9293 36.8778 90.9933 36.7527C91.0651 36.6342 91.103 36.4986 91.103 36.3603C91.103 36.222 91.0651 36.0863 90.9933 35.9678C90.0209 33.8487 89.2622 31.6393 88.7282 29.3717ZM84.5283 18.4877C84.5283 20.8309 82.1688 22.4242 78.4763 22.4242H75.2556V14.7972C76.2772 14.6759 77.3058 14.6211 78.3347 14.6332C81.2251 14.6566 84.5283 15.3478 84.5283 18.4877Z" fill="white"/>
<path d="M98.6736 10.7903H94.7569C94.3269 10.7903 93.9783 11.1365 93.9783 11.5636V36.3895C93.9783 36.8166 94.3269 37.1628 94.7569 37.1628H98.6736C99.1037 37.1628 99.4523 36.8166 99.4523 36.3895V11.5636C99.4523 11.1365 99.1037 10.7903 98.6736 10.7903Z" fill="white"/>
<path d="M116.169 22.1782L126.633 12.1377C126.747 12.0326 126.826 11.8957 126.86 11.745C126.894 11.5944 126.881 11.4372 126.822 11.2941C126.762 11.15 126.661 11.0265 126.531 10.9391C126.401 10.8516 126.248 10.804 126.091 10.802H121.23C121.022 10.8044 120.822 10.8886 120.676 11.0364L111.391 20.4091C110.966 20.8543 110.589 21.276 110.211 21.6744V11.5636C110.208 11.3594 110.125 11.1645 109.98 11.0202C109.835 10.8758 109.638 10.7934 109.433 10.7903H105.528C105.321 10.7903 105.123 10.8718 104.977 11.0168C104.831 11.1618 104.749 11.3585 104.749 11.5636V36.3895C104.749 36.5946 104.831 36.7913 104.977 36.9363C105.123 37.0813 105.321 37.1628 105.528 37.1628H109.445C109.65 37.1598 109.846 37.0773 109.992 36.933C110.137 36.7886 110.22 36.5937 110.223 36.3895V27.2512L112.252 25.3415L121.69 36.8816C121.766 36.9694 121.86 37.0399 121.966 37.0884C122.072 37.1369 122.187 37.1623 122.304 37.1628H126.94C127.088 37.1619 127.233 37.1197 127.358 37.041C127.484 36.9623 127.584 36.8502 127.648 36.7176C127.71 36.5849 127.733 36.4374 127.715 36.2923C127.696 36.1471 127.636 36.0102 127.542 35.8975L116.169 22.1782Z" fill="white"/>
<path d="M146.984 32.9216H134.62V25.5289H145.627C145.834 25.5289 146.032 25.4474 146.178 25.3024C146.324 25.1574 146.406 24.9607 146.406 24.7557V22.0962C146.406 21.8911 146.324 21.6944 146.178 21.5494C146.032 21.4044 145.834 21.3229 145.627 21.3229H134.62V15.0315H146.3C146.403 15.033 146.506 15.0142 146.601 14.976C146.697 14.9379 146.784 14.8811 146.858 14.8092C146.932 14.7372 146.99 14.6515 147.03 14.5569C147.07 14.4623 147.09 14.3608 147.09 14.2582V11.5636C147.087 11.3574 147.002 11.1608 146.855 11.0161C146.707 10.8714 146.507 10.7903 146.3 10.7903H129.925C129.717 10.7903 129.518 10.8714 129.37 11.0161C129.222 11.1608 129.138 11.3574 129.135 11.5636V36.3895C129.138 36.5957 129.222 36.7924 129.37 36.937C129.518 37.0817 129.717 37.1628 129.925 37.1628H146.984C147.19 37.1598 147.386 37.0773 147.531 36.933C147.677 36.7886 147.76 36.5937 147.763 36.3895V33.6949C147.76 33.4908 147.677 33.2958 147.531 33.1515C147.386 33.0071 147.19 32.9247 146.984 32.9216Z" fill="white"/>
<path d="M173.847 35.9209L164.739 23.6544L173.623 12.0439C173.708 11.9266 173.76 11.7882 173.773 11.6437C173.785 11.4991 173.758 11.354 173.693 11.2238C173.631 11.0934 173.532 10.9835 173.409 10.9067C173.285 10.8299 173.143 10.7896 172.997 10.7903H168.526C168.402 10.793 168.28 10.824 168.169 10.8809C168.059 10.9378 167.963 11.019 167.889 11.1184L163.748 16.9763C162.911 18.1479 162.238 19.1321 161.566 20.2333C160.881 19.1789 160.15 18.1245 159.36 16.988L155.36 11.1301C155.287 11.0263 155.19 10.9413 155.077 10.8823C154.964 10.8232 154.839 10.7917 154.711 10.7903H150.169C150.025 10.7899 149.884 10.8291 149.761 10.9035C149.638 10.978 149.539 11.0848 149.473 11.2121C149.404 11.3383 149.373 11.4816 149.383 11.6249C149.394 11.7682 149.445 11.9055 149.532 12.0205L158.109 23.8301L149.178 35.9326C149.109 36.047 149.07 36.1772 149.067 36.3106C149.063 36.4441 149.094 36.5762 149.157 36.6942C149.22 36.8121 149.313 36.9119 149.426 36.9838C149.539 37.0556 149.669 37.0971 149.804 37.1042H154.31C154.439 37.1047 154.567 37.0727 154.68 37.0112C154.794 36.9498 154.889 36.8609 154.959 36.7527L158.581 31.3283C159.843 29.5943 160.634 28.411 161.318 27.3215C162.132 28.493 163.029 29.7349 164.196 31.2931L168.066 36.7762C168.14 36.8756 168.236 36.9568 168.346 37.0137C168.457 37.0705 168.579 37.1015 168.703 37.1042H173.245C173.389 37.1047 173.53 37.0655 173.653 36.9911C173.776 36.9166 173.876 36.8098 173.941 36.6825C173.991 36.5579 174.009 36.4228 173.992 36.2897C173.976 36.1565 173.926 36.0297 173.847 35.9209Z" fill="white"/>
<path d="M31.2749 14.6683H19.4775V3.87796C19.4744 2.84838 19.0604 1.86204 18.3262 1.13512C17.592 0.408192 16.5975 -4.67037e-06 15.5608 0H3.53922C2.60056 0 1.70035 0.370304 1.03661 1.02945C0.372881 1.6886 0 2.58259 0 3.51477V30.2153C0.0185305 31.1352 0.399574 32.0113 1.06131 32.6553C1.72304 33.2993 2.6127 33.6599 3.53922 33.6598H15.3366V44.661C15.3488 45.5283 15.7003 46.357 16.3169 46.9715C16.9334 47.5859 17.7665 47.938 18.6399 47.9531H31.4519C32.2133 47.95 32.9424 47.6475 33.4797 47.1117C34.017 46.576 34.3187 45.8506 34.3187 45.0945V17.691C34.3202 17.2936 34.2426 16.8999 34.0902 16.5324C33.9377 16.165 33.7136 15.8312 33.4307 15.5502C33.1477 15.2692 32.8115 15.0466 32.4416 14.8952C32.0716 14.7439 31.6751 14.6667 31.2749 14.6683ZM15.2776 29.5826H4.37684V18.7571H15.2776V29.5826ZM15.2776 14.7972H4.37684V4.40518H15.2776V14.7972ZM30.2722 43.8643H19.3713V33.5426H30.2722V43.8643ZM30.2722 29.5826H19.3713V18.7571H30.2722V29.5826Z" fill="#22A881"/>
<path d="M31.2749 14.6683H19.4775V3.87796C19.4744 2.84838 19.0604 1.86204 18.3262 1.13512C17.592 0.408192 16.5975 -4.67037e-06 15.5608 0H3.53922C2.60056 0 1.70035 0.370304 1.03661 1.02945C0.372881 1.6886 0 2.58259 0 3.51477V30.2153C0.0185305 31.1352 0.399574 32.0113 1.06131 32.6553C1.72304 33.2993 2.6127 33.6599 3.53922 33.6598H15.3366V44.661C15.3488 45.5283 15.7003 46.357 16.3169 46.9715C16.9334 47.5859 17.7665 47.938 18.6399 47.9531H31.4519C32.2133 47.95 32.9424 47.6475 33.4797 47.1117C34.017 46.576 34.3187 45.8506 34.3187 45.0945V17.691C34.3202 17.2936 34.2426 16.8999 34.0902 16.5324C33.9377 16.165 33.7136 15.8312 33.4307 15.5502C33.1477 15.2692 32.8115 15.0466 32.4416 14.8952C32.0716 14.7439 31.6751 14.6667 31.2749 14.6683ZM15.2776 29.5826H4.37684V18.7571H15.2776V29.5826ZM15.2776 14.7972H4.37684V4.40518H15.2776V14.7972ZM30.2722 43.8643H19.3713V33.5426H30.2722V43.8643ZM30.2722 29.5826H19.3713V18.7571H30.2722V29.5826Z" fill="#22A881"/>
<path d="M61.2406 22.9631C62.2984 22.4914 63.2042 21.7383 63.858 20.7872C64.5117 19.8361 64.8879 18.724 64.945 17.5738C64.967 16.5574 64.7122 15.5539 64.2077 14.6692C63.7031 13.7846 62.9674 13.0516 62.0782 12.5477C60.0254 11.1887 57.3592 10.6146 53.3127 10.6146C50.8728 10.6026 48.4355 10.7749 46.0219 11.1301C45.8397 11.1631 45.6749 11.2585 45.5563 11.3999C45.4377 11.5412 45.3728 11.7194 45.3731 11.9033V36.3075C45.372 36.4992 45.4426 36.6844 45.5712 36.8273C45.6998 36.9701 45.8772 37.0605 46.0691 37.0808C48.1183 37.2988 50.1783 37.4005 52.2392 37.3854C57.4536 37.3854 60.9338 36.6004 63.2107 34.8899C64.096 34.2501 64.8162 33.4112 65.3124 32.4419C65.8087 31.4727 66.0668 30.4005 66.0657 29.3132C66.0657 26.0679 63.7652 24.0059 61.2406 22.9631ZM53.6312 21.2878H50.8589V14.7503C51.7487 14.6622 52.6427 14.6231 53.5369 14.6332C57.4418 14.6332 59.4356 15.7344 59.4356 17.9019C59.4356 20.0693 57.0879 21.2878 53.6312 21.2878ZM50.8589 25.2712H53.3127C55.4362 25.2712 60.3912 25.6578 60.3912 29.278C60.3912 32.8982 56.0025 33.3317 53.3835 33.3317C52.3099 33.3317 51.4959 33.3317 50.8824 33.2614L50.8589 25.2712Z" fill="white"/>
<path d="M88.7285 29.3718C88.2935 27.4195 87.1247 25.7056 85.4606 24.58C86.7823 24.0791 87.9225 23.1963 88.7342 22.0457C89.5459 20.895 89.9918 19.5293 90.0144 18.1245C90.0234 17.0883 89.783 16.0649 89.313 15.1397C88.8431 14.2144 88.1573 13.4142 87.3128 12.8055C85.2718 11.2942 82.4286 10.6263 78.0636 10.6263C75.5059 10.6053 72.9503 10.7777 70.4189 11.1418C70.2366 11.1748 70.0718 11.2703 69.9532 11.4116C69.8346 11.5529 69.7698 11.7311 69.77 11.9151V36.4013C69.7731 36.6054 69.8561 36.8004 70.0014 36.9447C70.1468 37.0891 70.3431 37.1715 70.5486 37.1746H74.4654C74.673 37.1746 74.8723 37.0935 75.0202 36.9488C75.1681 36.8041 75.2527 36.6075 75.2558 36.4013V26.4077H78.1344C81.3197 26.5131 82.6764 27.5792 83.4786 30.6605C84.505 34.3745 85.1067 36.1084 85.6257 36.8348C85.6962 36.9377 85.7913 37.0215 85.9025 37.0788C86.0137 37.136 86.1375 37.1649 86.2628 37.1628H90.3093C90.4506 37.1649 90.5896 37.1276 90.7105 37.0551C90.8315 36.9826 90.9296 36.8779 90.9936 36.7528C91.0653 36.6343 91.1032 36.4986 91.1032 36.3603C91.1032 36.222 91.0653 36.0863 90.9936 35.9678C90.0211 33.8488 89.2624 31.6393 88.7285 29.3718ZM84.5286 18.4877C84.5286 20.8309 82.1691 22.4242 78.4765 22.4242H75.2558V14.7972C76.2775 14.6759 77.3061 14.6211 78.3349 14.6332C81.2253 14.6566 84.5286 15.3479 84.5286 18.4877Z" fill="white"/>
<path d="M98.6734 10.7903H94.7567C94.3266 10.7903 93.978 11.1365 93.978 11.5635V36.3895C93.978 36.8166 94.3266 37.1627 94.7567 37.1627H98.6734C99.1034 37.1627 99.452 36.8166 99.452 36.3895V11.5635C99.452 11.1365 99.1034 10.7903 98.6734 10.7903Z" fill="white"/>
<path d="M116.169 22.1781L126.633 12.1376C126.747 12.0326 126.826 11.8956 126.86 11.745C126.893 11.5944 126.88 11.4371 126.822 11.2941C126.762 11.1499 126.661 11.0265 126.531 10.939C126.401 10.8516 126.248 10.8039 126.091 10.802H121.23C121.021 10.8043 120.822 10.8886 120.676 11.0363L111.391 20.409C110.966 20.8542 110.589 21.276 110.211 21.6743V11.5635C110.208 11.3594 110.125 11.1645 109.98 11.0201C109.834 10.8757 109.638 10.7933 109.433 10.7903H105.528C105.321 10.7903 105.123 10.8718 104.977 11.0168C104.831 11.1618 104.749 11.3585 104.749 11.5635V36.3895C104.749 36.5946 104.831 36.7913 104.977 36.9363C105.123 37.0813 105.321 37.1628 105.528 37.1628H109.444C109.65 37.1597 109.846 37.0773 109.992 36.9329C110.137 36.7886 110.22 36.5936 110.223 36.3895V27.2511L112.252 25.3414L121.69 36.8816C121.766 36.9693 121.86 37.0398 121.966 37.0884C122.072 37.1369 122.187 37.1622 122.304 37.1628H126.94C127.088 37.1619 127.233 37.1197 127.358 37.0409C127.483 36.9622 127.584 36.8502 127.648 36.7175C127.71 36.5849 127.733 36.4374 127.714 36.2922C127.696 36.147 127.636 36.0101 127.542 35.8974L116.169 22.1781Z" fill="white"/>
<path d="M146.984 32.9216H134.62V25.5289H145.627C145.834 25.5289 146.032 25.4474 146.178 25.3024C146.324 25.1574 146.406 24.9607 146.406 24.7556V22.0961C146.406 21.891 146.324 21.6944 146.178 21.5493C146.032 21.4043 145.834 21.3229 145.627 21.3229H134.62V15.0314H146.3C146.403 15.033 146.505 15.0141 146.601 14.976C146.697 14.9378 146.784 14.8811 146.858 14.8091C146.931 14.7372 146.99 14.6514 147.03 14.5568C147.069 14.4622 147.09 14.3607 147.09 14.2582V11.5635C147.087 11.3574 147.002 11.1607 146.854 11.016C146.706 10.8714 146.507 10.7903 146.3 10.7903H129.925C129.717 10.7903 129.518 10.8714 129.37 11.016C129.222 11.1607 129.137 11.3574 129.134 11.5635V36.3895C129.137 36.5956 129.222 36.7923 129.37 36.937C129.518 37.0817 129.717 37.1628 129.925 37.1628H146.984C147.189 37.1597 147.386 37.0773 147.531 36.9329C147.676 36.7886 147.759 36.5936 147.762 36.3895V33.6948C147.759 33.4907 147.676 33.2958 147.531 33.1514C147.386 33.0071 147.189 32.9246 146.984 32.9216Z" fill="white"/>
<path d="M173.847 35.9209L164.739 23.6543L173.623 12.0439C173.708 11.9265 173.76 11.7881 173.773 11.6436C173.785 11.4991 173.758 11.3539 173.693 11.2238C173.631 11.0934 173.532 10.9834 173.409 10.9067C173.285 10.8299 173.143 10.7895 172.997 10.7903H168.526C168.402 10.793 168.28 10.824 168.169 10.8808C168.059 10.9377 167.963 11.019 167.889 11.1183L163.748 16.9763C162.911 18.1479 162.238 19.132 161.566 20.2333C160.881 19.1789 160.15 18.1244 159.36 16.988L155.36 11.1301C155.287 11.0263 155.19 10.9413 155.077 10.8822C154.964 10.8231 154.839 10.7916 154.711 10.7903H150.169C150.025 10.7898 149.884 10.829 149.761 10.9035C149.638 10.9779 149.539 11.0847 149.473 11.2121C149.404 11.3383 149.373 11.4815 149.383 11.6249C149.394 11.7682 149.445 11.9055 149.532 12.0205L158.109 23.8301L149.178 35.9326C149.109 36.0469 149.07 36.1771 149.067 36.3106C149.063 36.444 149.094 36.5762 149.157 36.6941C149.22 36.8121 149.313 36.9119 149.426 36.9837C149.539 37.0556 149.669 37.0971 149.804 37.1042H154.31C154.439 37.1046 154.567 37.0726 154.68 37.0112C154.794 36.9498 154.889 36.8608 154.959 36.7527L158.581 31.3282C159.843 29.5943 160.634 28.411 161.318 27.3214C162.132 28.493 163.029 29.7349 164.196 31.2931L168.066 36.7761C168.14 36.8755 168.236 36.9568 168.346 37.0136C168.457 37.0705 168.579 37.1015 168.703 37.1042H173.245C173.389 37.1046 173.53 37.0655 173.653 36.991C173.776 36.9166 173.876 36.8097 173.941 36.6824C173.991 36.5578 174.009 36.4227 173.992 36.2896C173.976 36.1565 173.926 36.0297 173.847 35.9209Z" fill="white"/>
</g>
<defs>
<clipPath id="clip0_124_191">
<rect width="174" height="48" fill="white"/>
</clipPath>
</defs>
</svg>
