<svg width="18" height="17" viewBox="0 0 18 17" fill="none" xmlns="http://www.w3.org/2000/svg">
<path d="M7.44358 5.85566C7.16857 5.83066 6.92536 6.03333 6.90036 6.30833C6.87536 6.58334 7.07803 6.82655 7.35304 6.85155L7.44358 5.85566ZM10.9379 6.67538L11.4358 6.63011C11.414 6.38974 11.2235 6.19929 10.9831 6.17743L10.9379 6.67538ZM10.7617 10.2602C10.7867 10.5352 11.0299 10.7379 11.3049 10.7129C11.5799 10.6879 11.7826 10.4447 11.7576 10.1697L10.7617 10.2602ZM6.72298 10.1832C6.52772 10.3784 6.52772 10.695 6.72298 10.8903C6.91824 11.0855 7.23482 11.0855 7.43008 10.8903L6.72298 10.1832ZM7.35304 6.85155L10.8926 7.17333L10.9831 6.17743L7.44358 5.85566L7.35304 6.85155ZM10.4399 6.72065L10.7617 10.2602L11.7576 10.1697L11.4358 6.63011L10.4399 6.72065ZM10.5843 6.32183L6.72298 10.1832L7.43008 10.8903L11.2914 7.02893L10.5843 6.32183ZM14.6853 8.60608C14.6853 11.742 12.1431 14.2842 9.0072 14.2842V15.2842C12.6954 15.2842 15.6853 12.2943 15.6853 8.60608H14.6853ZM9.0072 14.2842C5.87127 14.2842 3.3291 11.742 3.3291 8.60608H2.3291C2.3291 12.2943 5.31899 15.2842 9.0072 15.2842V14.2842ZM3.3291 8.60608C3.3291 5.47015 5.87127 2.92798 9.0072 2.92798V1.92798C5.31899 1.92798 2.3291 4.91786 2.3291 8.60608H3.3291ZM9.0072 2.92798C12.1431 2.92798 14.6853 5.47015 14.6853 8.60608H15.6853C15.6853 4.91786 12.6954 1.92798 9.0072 1.92798V2.92798Z" fill="#2CA982"/>
</svg>
