<svg width="16" height="16" viewBox="0 0 16 16" fill="none" xmlns="http://www.w3.org/2000/svg">
<path d="M5.55587 9.18088C5.55587 10.0074 6.19015 10.6737 6.9782 10.6737H8.58634C9.27188 10.6737 9.82928 10.0907 9.82928 9.37309C9.82928 8.59144 9.48971 8.31595 8.98357 8.13655L6.40158 7.23958C5.89543 7.06019 5.55587 6.78469 5.55587 6.00305C5.55587 5.28547 6.11327 4.70244 6.79881 4.70244H8.40694C9.19499 4.70244 9.82928 5.36876 9.82928 6.19526M7.68817 3.84402V11.5323M14.0951 7.68817C14.0951 11.2266 11.2266 14.0951 7.68817 14.0951C4.14972 14.0951 1.28125 11.2266 1.28125 7.68817C1.28125 4.14972 4.14972 1.28125 7.68817 1.28125C11.2266 1.28125 14.0951 4.14972 14.0951 7.68817Z" stroke="#2CA982" stroke-linecap="round" stroke-linejoin="round"/>
</svg>
