<svg width="71" height="71" viewBox="0 0 71 71" fill="none" xmlns="http://www.w3.org/2000/svg">
<path d="M57.2983 50.949H13.7018M57.2983 50.949C59.0182 50.949 60.4124 49.4774 60.4124 47.662V18.0787C60.4124 16.2633 59.0182 14.7916 57.2983 14.7916H13.7018C11.982 14.7916 10.5878 16.2633 10.5878 18.0787V47.662C10.5878 49.4774 11.982 50.949 13.7018 50.949M57.2983 50.949H61.1909C63.3407 50.949 65.0834 52.7886 65.0834 55.0578C65.0834 57.3271 63.3407 59.1666 61.1909 59.1666H9.80929C7.6595 59.1666 5.91675 57.3271 5.91675 55.0578C5.91675 52.7886 7.6595 50.949 9.80929 50.949H13.7018" stroke="#2CA982" stroke-width="2" stroke-linecap="round" stroke-linejoin="round"/>
</svg>
