<svg width="14" height="22" viewBox="0 0 14 22" fill="none" xmlns="http://www.w3.org/2000/svg">
<path d="M12.7583 6.47442H7.94568V1.71169C7.94441 1.25725 7.7755 0.821884 7.476 0.501028C7.17649 0.180171 6.77081 -2.06145e-06 6.34788 0H1.44379C1.06088 0 0.693641 0.163448 0.422877 0.454388C0.152113 0.745329 0 1.13993 0 1.55138V13.3367C0.00755933 13.7427 0.163003 14.1294 0.432952 14.4137C0.702901 14.6979 1.06583 14.8571 1.44379 14.857H6.25644V19.7129C6.26139 20.0957 6.4048 20.4615 6.65632 20.7327C6.90783 21.0039 7.2477 21.1593 7.60398 21.166H12.8305C13.1411 21.1646 13.4386 21.0311 13.6578 20.7946C13.8769 20.5581 14 20.238 14 19.9042V7.80861C14.0006 7.63321 13.9689 7.45941 13.9068 7.29723C13.8446 7.13505 13.7532 6.9877 13.6377 6.86367C13.5223 6.73965 13.3852 6.6414 13.2342 6.57459C13.0833 6.50778 12.9216 6.47374 12.7583 6.47442ZM6.23238 13.0574H1.78549V8.2792H6.23238V13.0574ZM6.23238 6.53131H1.78549V1.9444H6.23238V6.53131ZM12.3493 19.3612H7.90237V14.8053H12.3493V19.3612ZM12.3493 13.0574H7.90237V8.2792H12.3493V13.0574Z" fill="#22A881"/>
</svg>
