<svg width="23" height="23" viewBox="0 0 23 23" fill="none" xmlns="http://www.w3.org/2000/svg">
<path d="M11.5 15.3334C11.845 15.3334 12.1805 15.3047 12.5063 15.2472C14.4134 14.9693 16.0521 13.8863 17.0871 12.353C17.7963 11.2893 18.2084 10.0147 18.2084 8.62508C18.2084 4.91633 15.2088 1.91675 11.5 1.91675C7.79129 1.91675 4.7917 4.91633 4.7917 8.62508C4.7917 10.0147 5.20378 11.2893 5.91295 12.353C6.94795 13.8863 8.5867 14.9693 10.4938 15.2472C10.8196 15.3047 11.155 15.3334 11.5 15.3334ZM11.5 15.3334L16.0713 20.5851C16.5792 21.1888 17.5567 20.9588 17.7388 20.1922L18.0742 18.7834C18.1509 18.4288 18.4288 18.1605 18.7834 18.0742L20.3646 17.7005C21.093 17.528 21.3517 16.6176 20.8246 16.1001L17.0871 12.3626C16.0521 13.8959 14.4134 14.9788 12.5063 15.2568C12.1805 15.3143 11.845 15.343 11.5 15.343C11.155 15.343 10.8196 15.3143 10.4938 15.2568C8.5867 14.9788 6.94795 13.8959 5.91295 12.3626L2.17545 16.1001C1.64837 16.6272 1.90712 17.5376 2.63545 17.7101L4.2167 18.0838C4.5617 18.1605 4.83962 18.4384 4.92587 18.793L5.26128 20.2017C5.44337 20.9684 6.42087 21.1984 6.92878 20.5947L11.5 15.3334ZM12.0559 5.73091L12.6213 6.86174C12.698 7.01507 12.8992 7.16841 13.0813 7.19716L14.1067 7.36966C14.7584 7.47507 14.9117 7.95425 14.4421 8.42383L13.6467 9.21923C13.5125 9.3534 13.4359 9.61216 13.4838 9.80383L13.7138 10.7909C13.8959 11.5672 13.4838 11.8738 12.7938 11.4617L11.8355 10.8963C11.663 10.7909 11.3755 10.7909 11.203 10.8963L10.2446 11.4617C9.55462 11.8642 9.14253 11.5672 9.32462 10.7909L9.55462 9.80383C9.59295 9.62175 9.52587 9.3534 9.3917 9.21923L8.59628 8.42383C8.1267 7.95425 8.28003 7.48466 8.9317 7.36966L9.95712 7.19716C10.1296 7.16841 10.3309 7.01507 10.4075 6.86174L10.973 5.73091C11.2509 5.11758 11.7492 5.11758 12.0559 5.73091Z" stroke="#2CA982" stroke-width="1.5" stroke-linecap="round" stroke-linejoin="round"/>
</svg>
