<svg width="30" height="30" viewBox="0 0 30 30" fill="none" xmlns="http://www.w3.org/2000/svg">
<path d="M25.625 14.125V8.80001C25.625 3.76251 24.45 2.5 19.725 2.5H10.275C5.55 2.5 4.375 3.76251 4.375 8.80001V22.875C4.375 26.2 6.20001 26.9875 8.41251 24.6125L8.42499 24.6C9.44999 23.5125 11.0125 23.6 11.9 24.7875L13.1625 26.475M27.5 27.5L26.25 26.25M10 8.75H20M11.25 13.75H18.75M26.75 22.75C26.75 24.9592 24.9592 26.75 22.75 26.75C20.5409 26.75 18.75 24.9592 18.75 22.75C18.75 20.5409 20.5409 18.75 22.75 18.75C24.9592 18.75 26.75 20.5409 26.75 22.75Z" stroke="#292D32" stroke-width="1.5" stroke-linecap="round" stroke-linejoin="round"/>
</svg>
